<svg width="50" height="50" fill="none" xmlns="http://www.w3.org/2000/svg"><rect width="50" height="50" rx="25" fill="#F4CD1D" fill-opacity=".2"/><rect x="10" y="10" width="30" height="30" rx="15" fill="#F4CD1D"/><path d="M20.085 30.18c-.87 0-1.645-.215-2.325-.645-.68-.43-1.215-1.05-1.605-1.86-.38-.82-.57-1.795-.57-2.925s.19-2.1.57-2.91c.39-.82.925-1.445 1.605-1.875.68-.43 1.455-.645 2.325-.645.87 0 1.645.215 2.325.645.68.43 1.21 1.055 1.59 1.875.39.81.585 1.78.585 2.91 0 1.13-.195 2.105-.585 2.925-.38.81-.91 1.43-1.59 1.86-.68.43-1.455.645-2.325.645zm0-2.055c.64 0 1.14-.275 1.5-.825.37-.55.555-1.4.555-2.55s-.185-2-.555-2.55c-.36-.55-.86-.825-1.5-.825-.63 0-1.13.275-1.5.825-.36.55-.54 1.4-.54 2.55s.18 2 .54 2.55c.37.55.87.825 1.5.825zm13.438-.105V30h-7.935v-1.575l4.05-3.825c.43-.41.72-.76.87-1.05.15-.3.225-.595.225-.885 0-.42-.145-.74-.435-.96-.28-.23-.695-.345-1.245-.345-.46 0-.875.09-1.245.27-.37.17-.68.43-.93.78l-1.77-1.14c.41-.61.975-1.085 1.695-1.425.72-.35 1.545-.525 2.475-.525.78 0 1.46.13 2.04.39.59.25 1.045.61 1.365 1.08.33.46.495 1.005.495 1.635 0 .57-.12 1.105-.36 1.605s-.705 1.07-1.395 1.71l-2.415 2.28h4.515z" fill="#000"/></svg>