<svg width="50" height="50" fill="none" xmlns="http://www.w3.org/2000/svg"><rect width="50" height="50" rx="25" fill="#F4CD1D" fill-opacity=".2"/><rect x="10" y="10" width="30" height="30" rx="15" fill="#F4CD1D"/><path d="M20.085 30.18c-.87 0-1.645-.215-2.325-.645-.68-.43-1.215-1.05-1.605-1.86-.38-.82-.57-1.795-.57-2.925s.19-2.1.57-2.91c.39-.82.925-1.445 1.605-1.875.68-.43 1.455-.645 2.325-.645.87 0 1.645.215 2.325.645.68.43 1.21 1.055 1.59 1.875.39.81.585 1.78.585 2.91 0 1.13-.195 2.105-.585 2.925-.38.81-.91 1.43-1.59 1.86-.68.43-1.455.645-2.325.645zm0-2.055c.64 0 1.14-.275 1.5-.825.37-.55.555-1.4.555-2.55s-.185-2-.555-2.55c-.36-.55-.86-.825-1.5-.825-.63 0-1.13.275-1.5.825-.36.55-.54 1.4-.54 2.55s.18 2 .54 2.55c.37.55.87.825 1.5.825zm10.44-4.35c.92.15 1.624.495 2.114 1.035.49.53.735 1.19.735 1.98 0 .61-.16 1.175-.48 1.695-.32.51-.81.92-1.47 1.23-.65.31-1.45.465-2.4.465-.74 0-1.47-.095-2.19-.285-.71-.2-1.315-.48-1.815-.84l.945-1.86c.4.3.86.535 1.38.705.53.16 1.07.24 1.62.24.61 0 1.09-.115 1.44-.345.35-.24.525-.575.525-1.005 0-.86-.655-1.29-1.965-1.29h-1.11v-1.605l2.16-2.445h-4.47V19.5h7.35v1.575l-2.37 2.7z" fill="#000"/></svg>