<svg width="50" height="50" fill="none" xmlns="http://www.w3.org/2000/svg"><rect width="50" height="50" rx="25" fill="#F4CD1D" fill-opacity=".2"/><rect x="10" y="10" width="30" height="30" rx="15" fill="#F4CD1D"/><path d="M20.085 30.18c-.87 0-1.645-.215-2.325-.645-.68-.43-1.215-1.05-1.605-1.86-.38-.82-.57-1.795-.57-2.925s.19-2.1.57-2.91c.39-.82.925-1.445 1.605-1.875.68-.43 1.455-.645 2.325-.645.87 0 1.645.215 2.325.645.68.43 1.21 1.055 1.59 1.875.39.81.585 1.78.585 2.91 0 1.13-.195 2.105-.585 2.925-.38.81-.91 1.43-1.59 1.86-.68.43-1.455.645-2.325.645zm0-2.055c.64 0 1.14-.275 1.5-.825.37-.55.555-1.4.555-2.55s-.185-2-.555-2.55c-.36-.55-.86-.825-1.5-.825-.63 0-1.13.275-1.5.825-.36.55-.54 1.4-.54 2.55s.18 2 .54 2.55c.37.55.87.825 1.5.825zm9.28-4.68c1.48 0 2.57.295 3.27.885.71.59 1.066 1.38 1.066 2.37 0 .64-.16 1.225-.48 1.755-.32.52-.81.94-1.47 1.26-.65.31-1.455.465-2.415.465-.74 0-1.47-.095-2.19-.285-.71-.2-1.315-.48-1.815-.84l.96-1.86c.4.3.86.535 1.38.705.52.16 1.055.24 1.605.24.61 0 1.09-.12 1.44-.36.35-.24.525-.575.525-1.005 0-.45-.185-.79-.555-1.02-.36-.23-.99-.345-1.89-.345H26.11l.54-5.91h6.405v1.95h-4.38l-.165 1.995h.855z" fill="#000"/></svg>