<svg width="50" height="50" fill="none" xmlns="http://www.w3.org/2000/svg"><rect width="50" height="50" rx="25" fill="#F4CD1D" fill-opacity=".2"/><rect x="10" y="10" width="30" height="30" rx="15" fill="#F4CD1D"/><path d="M20.085 30.18c-.87 0-1.645-.215-2.325-.645-.68-.43-1.215-1.05-1.605-1.86-.38-.82-.57-1.795-.57-2.925s.19-2.1.57-2.91c.39-.82.925-1.445 1.605-1.875.68-.43 1.455-.645 2.325-.645.87 0 1.645.215 2.325.645.68.43 1.21 1.055 1.59 1.875.39.81.585 1.78.585 2.91 0 1.13-.195 2.105-.585 2.925-.38.81-.91 1.43-1.59 1.86-.68.43-1.455.645-2.325.645zm0-2.055c.64 0 1.14-.275 1.5-.825.37-.55.555-1.4.555-2.55s-.185-2-.555-2.55c-.36-.55-.86-.825-1.5-.825-.63 0-1.13.275-1.5.825-.36.55-.54 1.4-.54 2.55s.18 2 .54 2.55c.37.55.87.825 1.5.825zm10.736-4.71c.67 0 1.28.135 1.83.405s.985.655 1.305 1.155c.32.49.48 1.06.48 1.71 0 .7-.175 1.315-.525 1.845-.35.53-.83.94-1.44 1.23-.6.28-1.27.42-2.01.42-1.47 0-2.62-.45-3.45-1.35-.83-.9-1.245-2.185-1.245-3.855 0-1.19.225-2.21.675-3.06.45-.85 1.075-1.495 1.875-1.935.81-.44 1.745-.66 2.805-.66.56 0 1.095.065 1.605.195.52.12.96.295 1.32.525l-.9 1.785c-.52-.35-1.175-.525-1.965-.525-.89 0-1.595.26-2.115.78-.52.52-.8 1.275-.84 2.265.62-.62 1.485-.93 2.595-.93zm-.495 4.95c.52 0 .94-.14 1.26-.42.33-.28.495-.66.495-1.14 0-.48-.165-.86-.495-1.14-.32-.29-.75-.435-1.29-.435-.53 0-.965.15-1.305.45-.34.29-.51.665-.51 1.125 0 .46.165.835.495 1.125.33.29.78.435 1.35.435z" fill="#000"/></svg>