<svg width="60" height="60" fill="none" xmlns="http://www.w3.org/2000/svg"><g clip-path="url(#clip0)" fill="#F4CD1D"><path d="M22.969 55.313H37.03c.647 0 1.172-.525 1.172-1.172V34.688c0-.648-.525-1.172-1.172-1.172H22.97c-.647 0-1.172.524-1.172 1.172V54.14c0 .647.525 1.172 1.172 1.172zm1.172-19.454h11.718v17.11H24.141v-17.11zM30 21.094a1.172 1.172 0 100-2.344 1.172 1.172 0 000 2.344z"/><path d="M48.75 14.063h-3.516v-3.516c0-.31-.123-.609-.343-.829l-2.343-2.343a3.512 3.512 0 00-.646-3.958c-.075-.079-1.314-1.316-2.355-2.357A3.487 3.487 0 0037.031 0a3.52 3.52 0 00-3.515 3.516c0 .955.376 1.848 1.06 2.515l2.289 2.29.006.005a3.513 3.513 0 004.02.707l2 2v3.03H17.109v-3.03l2-2c1.292.618 2.92.41 4.02-.707l.006-.006 2.318-2.318a3.488 3.488 0 001.031-2.486A3.52 3.52 0 0022.97 0c-.956 0-1.849.376-2.516 1.06l-2.338 2.338-.017.019a3.512 3.512 0 00-.646 3.958L15.11 9.718c-.22.22-.343.518-.343.829v3.515H11.25c-.647 0-1.172.525-1.172 1.172v4.688c0 .647.525 1.172 1.172 1.172h3.516V30c0 .647.524 1.172 1.171 1.172h1.172v26.484h-3.515a1.172 1.172 0 000 2.344h32.812a1.172 1.172 0 000-2.344h-3.515V31.172h1.172c.647 0 1.171-.525 1.171-1.172v-8.906h3.516c.647 0 1.172-.525 1.172-1.172v-4.688c0-.647-.525-1.171-1.172-1.171zM38.565 6.705L36.228 4.37a1.162 1.162 0 01-.368-.853 1.173 1.173 0 012.012-.817c.188.194-.664-.663 2.322 2.323a1.17 1.17 0 01.01 1.666 1.17 1.17 0 01-1.639.018zM22.128 2.7a1.173 1.173 0 111.669 1.644l-2.362 2.363a1.17 1.17 0 01-1.638-.018 1.17 1.17 0 01.009-1.666c3.058-3.059 2.147-2.143 2.322-2.323zm18.419 54.957H19.453V31.172h21.094v26.484zm7.031-38.906H35.273a1.172 1.172 0 000 2.344h7.618v7.734H17.109v-7.734h7.618a1.172 1.172 0 000-2.344H12.422v-2.344h35.156v2.344z"/></g><defs><clipPath id="clip0"><path fill="#fff" d="M0 0h60v60H0z"/></clipPath></defs></svg>