<svg width="60" height="60" fill="none" xmlns="http://www.w3.org/2000/svg"><g clip-path="url(#clip0)" fill="#F4CD1D"><path d="M57.685 33.448a1.172 1.172 0 00-.485-1.585 18.378 18.378 0 00-20.266 2.024l-1.894-1.894 3.093-3.092a1.172 1.172 0 10-1.658-1.657l-3.092 3.092-7.545-7.545a16.366 16.366 0 003.136-7.883A16.29 16.29 0 0027.17 5.31a1.172 1.172 0 00-2.07 1.1c2.524 4.749 2.13 10.389-.938 14.704l-4.972-4.972a2.863 2.863 0 00-2.653-.775 2.863 2.863 0 00-2.08 1.819L.18 56.13a2.848 2.848 0 00.666 3.023 2.85 2.85 0 003.024.667l38.944-14.276a2.863 2.863 0 001.819-2.081 2.863 2.863 0 00-.775-2.653l-5.257-5.257a16.031 16.031 0 0117.5-1.62c.571.303 1.28.086 1.584-.486zm-39.02 18.453L8.1 41.335l2.928-7.986L26.65 48.973l-7.986 2.928zM12.94 54L6 47.06l1.21-3.3 9.03 9.029L12.938 54zm-9.876 3.62a.51.51 0 01-.56-.124.51.51 0 01-.123-.56l2.731-7.45 5.402 5.402-7.45 2.731zm39.281-14.662a.518.518 0 01-.336.385l-7.205 2.641-6.665-6.665a1.172 1.172 0 00-1.657 1.657l5.897 5.897-3.301 1.21-17.161-17.16 1.21-3.302 5.897 5.897a1.168 1.168 0 001.658 0c.457-.457.457-1.2 0-1.657l-6.666-6.665 2.641-7.204a.518.518 0 01.385-.337.51.51 0 01.49.143l24.67 24.67c.18.179.167.384.143.49zM35.343 9.352c.647 0 1.172-.524 1.172-1.172 0-.981.799-1.78 1.78-1.78a4.128 4.128 0 004.124-4.123 1.172 1.172 0 00-2.344 0c0 .981-.799 1.78-1.78 1.78a4.128 4.128 0 00-4.124 4.123c0 .648.525 1.172 1.172 1.172zM45.74 20.413A4.264 4.264 0 0050 16.155c0-1.056.858-1.915 1.914-1.915a1.172 1.172 0 100-2.344 4.264 4.264 0 00-4.259 4.259 1.917 1.917 0 01-1.915 1.915 1.172 1.172 0 100 2.343zm6.76 2.261a3.754 3.754 0 003.75 3.75 3.754 3.754 0 003.75-3.75 3.754 3.754 0 00-3.75-3.75 3.754 3.754 0 00-3.75 3.75zm3.75-1.406c.775 0 1.406.63 1.406 1.406 0 .775-.63 1.406-1.406 1.406a1.407 1.407 0 010-2.812z"/><path d="M36.927 19.905a3.754 3.754 0 003.75-3.75 3.754 3.754 0 00-3.75-3.75 3.754 3.754 0 00-3.75 3.75 3.754 3.754 0 003.75 3.75zm0-5.157a1.408 1.408 0 010 2.813 1.407 1.407 0 010-2.813zM15 7.5a3.754 3.754 0 003.75-3.75A3.754 3.754 0 0015 0a3.754 3.754 0 00-3.75 3.75A3.754 3.754 0 0015 7.5zm0-5.156c.776 0 1.407.63 1.407 1.406a1.408 1.408 0 01-2.813 0c0-.775.63-1.406 1.406-1.406zM53.028 41.14a1.172 1.172 0 00-1.658 1.657l1.105 1.105a1.168 1.168 0 001.657 0c.458-.458.458-1.2 0-1.658l-1.104-1.104zm5.524 5.524a1.172 1.172 0 00-1.657 1.657l1.104 1.105a1.168 1.168 0 001.658 0c.457-.457.457-1.2 0-1.657l-1.105-1.105zM58 41.14l-1.105 1.105a1.172 1.172 0 001.657 1.657l1.105-1.105a1.172 1.172 0 00-1.658-1.657zm-5.525 5.524l-1.105 1.105a1.172 1.172 0 001.658 1.657l1.105-1.105a1.172 1.172 0 00-1.658-1.657zm5.248-43.215c.3 0 .6-.115.829-.344L59.657 2A1.172 1.172 0 1057.999.343l-1.105 1.105a1.172 1.172 0 00.83 2zm-5.524 5.524c.3 0 .6-.115.829-.344l1.105-1.104a1.172 1.172 0 00-1.658-1.658L51.37 6.972a1.172 1.172 0 00.829 2zm6.353-3.106a1.172 1.172 0 00-1.657 1.658l1.104 1.104a1.168 1.168 0 001.658 0c.457-.457.457-1.2 0-1.657l-1.105-1.105zm-6.077-2.762a1.168 1.168 0 001.657 0 1.17 1.17 0 000-1.657L53.029.343A1.172 1.172 0 0051.37 2l1.105 1.105zM23.58 35.248c-.308 0-.61.125-.828.343a1.18 1.18 0 00-.343.828c0 .309.125.611.343.829.218.218.52.343.829.343.308 0 .61-.125.828-.343a1.18 1.18 0 00.343-.829c0-.308-.125-.61-.343-.828a1.18 1.18 0 00-.828-.343zm17.098-12.207l-.85.85a1.172 1.172 0 001.657 1.657l.85-.85a1.172 1.172 0 00-1.657-1.657z"/></g><defs><clipPath id="clip0"><path fill="#fff" d="M0 0h60v60H0z"/></clipPath></defs></svg>