<svg width="60" height="60" fill="none" xmlns="http://www.w3.org/2000/svg"><path d="M43.567 20.668l3.57-3.571-2.544-2.96h-6.13l-2.543 2.96 3.57 3.57A18.459 18.459 0 0030 24.595a18.458 18.458 0 00-9.49-3.926l3.57-3.571-2.543-2.96h-6.13l-2.544 2.96 3.57 3.57C7.204 21.686 0 29.53 0 39.028c0 10.184 8.286 18.47 18.472 18.47 4.199 0 8.263-1.429 11.528-4.039a18.463 18.463 0 0011.528 4.04C51.714 57.498 60 49.212 60 39.026c0-9.496-7.204-17.34-16.433-18.358zm-5.219-3.663l.934-1.087h4.493l.934 1.087-3.18 3.18-3.18-3.18zm-23.057 0l.934-1.087h4.493l.934 1.087-3.18 3.18-3.18-3.18zm3.18 38.71c-9.202 0-16.689-7.486-16.689-16.689 0-9.202 7.487-16.69 16.69-16.69a16.68 16.68 0 0113.477 6.846 16.56 16.56 0 013.212 9.844 16.55 16.55 0 01-2.644 9.017l-.066-.068c-.098-.1-.195-.2-.29-.302l-.123-.137a12.645 12.645 0 01-.57-.682 12.003 12.003 0 01-.343-.461l-.07-.097a14.492 14.492 0 001.948-7.27c0-2.569-.675-5.074-1.955-7.281l.007-.012-.302-.477a14.57 14.57 0 00-2.842-3.277l-.73-.625-.019.026a14.538 14.538 0 00-8.69-2.885c-8.013 0-14.532 6.519-14.532 14.531 0 8.013 6.52 14.532 14.532 14.532 3.147 0 6.204-1.024 8.709-2.9.01.015.023.028.034.042l.192.23.149.176c.068.08.139.157.209.235l.143.161c.077.084.156.166.234.249l.13.137c.095.099.193.195.29.292l.08.08a16.683 16.683 0 01-10.17 3.456zm15.405-26.882a12.75 12.75 0 017.652-2.556c7.03 0 12.75 5.72 12.75 12.75s-5.72 12.748-12.75 12.748a12.75 12.75 0 01-7.652-2.556 18.322 18.322 0 003.067-10.193 18.32 18.32 0 00-3.067-10.193zM30 44.47a12.725 12.725 0 01-1.22-5.445c0-1.896.42-3.751 1.22-5.445.8 1.694 1.22 3.55 1.22 5.445 0 1.896-.42 3.752-1.22 5.445zm-3.876-15.638a18.322 18.322 0 00-3.067 10.193 18.32 18.32 0 003.067 10.194 12.75 12.75 0 01-7.652 2.556c-7.03 0-12.75-5.72-12.75-12.75s5.72-12.749 12.75-12.749c2.766 0 5.452.904 7.652 2.556zm15.404 26.883a16.68 16.68 0 01-13.477-6.846 16.56 16.56 0 01-3.212-9.844c0-3.23.911-6.328 2.644-9.017l.067.07c.098.098.194.198.288.3.042.045.082.091.123.137a12.496 12.496 0 01.572.684l.117.15c.077.102.151.205.225.31l.07.096a14.493 14.493 0 00-1.948 7.27c0 2.57.675 5.075 1.955 7.282l-.007.011.302.477a14.589 14.589 0 002.842 3.278l.73.625.019-.026a14.537 14.537 0 008.69 2.885c8.013 0 14.532-6.519 14.532-14.532 0-8.012-6.52-14.531-14.532-14.531a14.536 14.536 0 00-8.709 2.899c-.01-.014-.023-.027-.034-.04a10.622 10.622 0 00-.192-.23c-.05-.06-.099-.119-.15-.177a9.026 9.026 0 00-.206-.233c-.049-.055-.096-.11-.146-.164-.075-.082-.152-.162-.228-.243l-.136-.143a19.782 19.782 0 00-.278-.279l-.091-.092a16.683 16.683 0 0110.17-3.456c9.203 0 16.69 7.487 16.69 16.69 0 9.202-7.487 16.689-16.69 16.689zM30.891 2.502H29.11V8.05h1.782V2.502zm6.807 1.617l-2.33 5.035 1.618.748 2.33-5.035-1.618-.748zm-15.397.001l-1.617.748 2.329 5.035 1.617-.748-2.329-5.035z" fill="#F4CD1D"/></svg>