<svg width="60" height="60" fill="none" xmlns="http://www.w3.org/2000/svg"><path d="M31.211 10.342v-9.17a1.172 1.172 0 10-2.344 0v9.17c-12.51.613-22.5 10.983-22.5 23.642 0 13.053 10.62 23.672 23.672 23.672 13.053 0 23.672-10.619 23.672-23.672 0-12.66-9.99-23.03-22.5-23.642zm16.155 11.22h-6.711a27.986 27.986 0 00-1.613-4.012c-.765-1.53-1.624-2.833-2.554-3.896a21.415 21.415 0 0110.878 7.909zm1.465 22.5H41.31c.67-2.765 1.06-5.78 1.137-8.906h8.889a21.178 21.178 0 01-2.504 8.907zm-28.568-4.944a1.171 1.171 0 10-2.327.28c.194 1.61.477 3.175.839 4.665h-7.528a21.177 21.177 0 01-2.503-8.907h4.772a1.172 1.172 0 000-2.343H8.744a21.174 21.174 0 012.503-8.907h7.528a39.949 39.949 0 00-.84 4.675 1.172 1.172 0 002.327.279c.21-1.75.524-3.41.924-4.954h7.681v8.907h-4.804a1.172 1.172 0 000 2.343h4.804v8.907h-7.68a37.507 37.507 0 01-.924-4.945zm10.948-17.556v-8.754c2.823.729 5.33 4.043 6.959 8.755h-6.959zm7.667 2.344c.702 2.693 1.136 5.72 1.223 8.907h-8.89v-8.907h7.667zM28.868 12.81v8.754h-6.976c1.645-4.762 4.182-8.03 6.975-8.754zm0 33.597v8.754c-2.794-.724-5.33-3.992-6.976-8.754h6.975zm2.343 8.754v-8.754h6.959c-1.63 4.711-4.136 8.026-6.959 8.754zm0-11.097v-8.907h8.89c-.086 3.187-.521 6.214-1.223 8.907H31.21zm11.235-11.25c-.078-3.126-.467-6.141-1.137-8.907h7.522a21.177 21.177 0 012.504 8.907h-8.889zM23.601 13.65a16.2 16.2 0 00-1.571 2.123c-1.027 1.64-1.905 3.605-2.6 5.79h-6.718a21.415 21.415 0 0110.89-7.913zM12.712 46.406h6.718c.696 2.186 1.575 4.152 2.602 5.793a16.201 16.201 0 001.57 2.12 21.415 21.415 0 01-10.89-7.913zm23.776 7.909c.93-1.063 1.789-2.366 2.554-3.897a27.983 27.983 0 001.613-4.012h6.711a21.416 21.416 0 01-10.878 7.909zm-30.59-6.034c-.647 0-1.171.525-1.171 1.172v1.563a1.172 1.172 0 002.343 0v-1.563c0-.647-.524-1.172-1.172-1.172zm0 7.813a1.17 1.17 0 00-1.171 1.172v1.562a1.172 1.172 0 002.343 0v-1.562c0-.648-.524-1.172-1.172-1.172zm4.688-3.125H9.023a1.172 1.172 0 100 2.343h1.563a1.172 1.172 0 000-2.343zm-7.813 0H1.211a1.172 1.172 0 100 2.343h1.562a1.172 1.172 0 000-2.343zM54.102 6.328c-.647 0-1.172.525-1.172 1.172v1.562a1.172 1.172 0 002.343 0V7.5c0-.647-.524-1.172-1.171-1.172zm0 7.812c-.647 0-1.172.525-1.172 1.172v1.563a1.172 1.172 0 002.343 0v-1.563a1.17 1.17 0 00-1.171-1.171zm4.688-3.124h-1.563a1.172 1.172 0 000 2.343h1.562a1.172 1.172 0 000-2.343zm-9.376 2.344h1.563a1.172 1.172 0 000-2.344h-1.563a1.172 1.172 0 000 2.343z" fill="#F4CD1D"/><path d="M18.789 32.813a1.18 1.18 0 00-.829.343 1.18 1.18 0 00-.343.828c0 .309.125.61.343.829.22.218.52.343.829.343a1.175 1.175 0 00.829-2 1.178 1.178 0 00-.83-.344z" fill="#F4CD1D"/></svg>