<svg width="60" height="60" fill="none" xmlns="http://www.w3.org/2000/svg"><g clip-path="url(#clip0)" fill="#F4CD1D"><path d="M58.828 7.031c.647 0 1.172-.525 1.172-1.172V1.172C60 .525 59.475 0 58.828 0H49.98a3.527 3.527 0 00-3.04 1.751l-5.526 9.526H24.842a12.36 12.36 0 00-3.63-7.67A12.372 12.372 0 0012.45 0C5.584 0 0 5.584 0 12.449c0 6.864 5.584 12.449 12.449 12.449 2.921 0 5.69-1.001 7.915-2.84L31.775 33.47v18.337l-7.16 3.803a2.299 2.299 0 00-1.17 2.622A2.299 2.299 0 0025.709 60h19.83c1.088 0 1.997-.71 2.26-1.767a2.3 2.3 0 00-1.166-2.622l-7.168-3.812V33.47l2.224-2.224a1.172 1.172 0 10-1.657-1.657l-2.636 2.636a2.514 2.514 0 01-3.55 0l-11.81-11.808h27.165l-1.714 1.713a1.172 1.172 0 101.658 1.658l10.51-10.511a1.172 1.172 0 00-.828-2h-9.285l2.462-4.247h6.823zM2.344 12.45c0-1.425.298-2.781.832-4.012l6.93 4-6.938 4.005a10.046 10.046 0 01-.824-3.993zm20.14-1.172h-5.682l4.917-2.839c.387.888.65 1.842.766 2.839zM20.54 6.413l-6.918 3.994V2.415a10.13 10.13 0 016.918 3.998zm-9.262-4v7.994L4.352 6.41a10.107 10.107 0 016.925-3.995zM4.34 18.473l6.937-4.005v8.017a10.107 10.107 0 01-6.937-4.012zm9.28 4.012v-7.169l5.075 5.075a10.004 10.004 0 01-5.074 2.094zm22 12.82c.517 0 1.022-.082 1.5-.237v17.436c0 .433.24.831.622 1.035l7.744 4.118H25.76l7.738-4.11a1.17 1.17 0 00.622-1.035V35.067c.478.155.983.237 1.5.237zm15.926-17.23H19.694L15.24 13.62h40.758l-4.453 4.453zM50.316 5.27l-3.483 6.006h-2.71l4.844-8.35c.209-.36.597-.583 1.014-.583h7.675v2.344h-6.325c-.418 0-.805.222-1.014.583z"/><path d="M43.759 25.86a1.177 1.177 0 000 1.657 1.176 1.176 0 001.658 0 1.18 1.18 0 00.343-.829c0-.308-.125-.61-.343-.828a1.183 1.183 0 00-.828-.344c-.31 0-.61.126-.83.344z"/></g><defs><clipPath id="clip0"><path fill="#fff" d="M0 0h60v60H0z"/></clipPath></defs></svg>