<svg width="60" height="60" fill="none" xmlns="http://www.w3.org/2000/svg"><path d="M8.737 29.65h42.526a.82.82 0 00.82-.82V.82a.82.82 0 00-.82-.82H8.737a.82.82 0 00-.82.82v28.008a.82.82 0 00.82.822zm.82-28.01h40.886v26.37H9.557V1.64z" fill="#F4CD1D"/><path d="M47.847 3.416H12.153a.82.82 0 00-.82.82v21.178a.82.82 0 00.82.82h35.694a.82.82 0 00.82-.82V4.236a.82.82 0 00-.82-.82zm-10.65 13.67l3.372-1.383 6.458 2.266v1.995l-9.83-2.877zm9.83-12.03V16.23l-6.21-2.179a.829.829 0 00-.582.015l-5.56 2.283-9.354-2.738a.823.823 0 00-.541.028l-11.807 4.83V5.056h34.054zm0 19.537H12.973v-4.35l12.162-4.977 21.89 6.408.002 2.92z" fill="#F4CD1D"/><path d="M33.266 14.063a3.062 3.062 0 10.001-6.124 3.062 3.062 0 000 6.123zm0-4.483a1.421 1.421 0 11.001 2.838 1.421 1.421 0 010-2.836V9.58zM59.18 40.973h-3.7c.438-.631.672-1.38.672-2.148v-.528a3.79 3.79 0 00-7.579 0v.526c0 .768.234 1.517.672 2.148h-3.699a.82.82 0 00-.82.82v3.126a.82.82 0 00.82.82h3.027v1.225c-3.756 1.35-10.727 3.392-18.574 3.392-7.847 0-14.818-2.041-18.574-3.392v-1.223h3.027a.82.82 0 00.82-.82v-3.126a.82.82 0 00-.82-.82h-3.698c.437-.631.671-1.38.67-2.148v-.528a3.79 3.79 0 00-7.578 0v.526c0 .768.234 1.519.672 2.15H.82a.82.82 0 00-.82.82v3.125a.82.82 0 00.82.82h3.028V59.18a.82.82 0 00.82.82h5.937a.82.82 0 00.82-.82v-6.507A60.781 60.781 0 0030 55.746a60.787 60.787 0 0018.574-3.074v6.508a.82.82 0 00.82.82h5.938a.82.82 0 00.82-.82V45.738h3.028a.82.82 0 00.82-.82v-3.126a.82.82 0 00-.82-.82zm-8.965-2.148v-.528a2.149 2.149 0 014.297 0v.526a2.149 2.149 0 01-4.297 0v.002zm-44.727 0v-.528a2.148 2.148 0 014.297 0v.526a2.148 2.148 0 11-4.297 0v.002zm-3.847 3.788h11.992v1.485H1.64v-1.485zM9.785 58.36H5.488V45.74h4.297v12.62zM30 54.105a59.348 59.348 0 01-18.574-3.16v-2.242A58.195 58.195 0 0030 51.996a58.194 58.194 0 0018.574-3.292v2.242A59.357 59.357 0 0130 54.106zm24.512 4.254h-4.297V45.74h4.297v12.62zm3.847-14.261H46.367v-1.485H58.36v1.485z" fill="#F4CD1D"/></svg>