<svg width="60" height="29" xmlns="http://www.w3.org/2000/svg"><path d="M20.162 9.12c-3.296-1.394-6.854.443-10.26-1.361-3.64-1.921-6.688 1.21-9.014 3.222-2.511 2.165 1.003 3.687 2.045 5.524 1.374 2.432 2.585.014 3.826.232.891.159 2.145-.418 2.547.727.402 1.148-.475 1.553-1.56 1.91-2.747.9-1.528 2.48-.585 4.09 1.484 2.544 4.832 1.197 6.956 4.54.092-2.097-.006-2.824.18-3.461.454-1.536-1.22-3.523 1.391-4.657 2.359-1.033 3.753.292 5.259 1.4 1.126.838 1.96 1.88 3.624 1.513 2.186-.489 3.58.255 4.42 2.597.68 1.9 2.459 3.23 4.465 1.55 4.46-3.726 9.607-3.278 14.63-2.302 2.132.413 2.427-.23 2.632-1.754.449-3.253 2.602-5.013 5.417-6.087 1.162-.446 4.354-4.994 3.808-5.026-2.594-.159-3.734-3.245-6.366-3.026-2.714.227-4.512-.765-5.974-3.165C46.288 3.424 44.83.631 41.286 3.1c-.598.415-2.67-.295-3.304-1.088C35.487-1.115 32.685.123 29.8.973c-2 .587-4.01 1.279-6.06 1.533-3.631.443-3.222 3.35-2.571 5.168.65 1.823-.156 1.804-1.006 1.446z" fill="#F4CD1D"/></svg>