<svg width="60" height="60" fill="none" xmlns="http://www.w3.org/2000/svg"><g clip-path="url(#clip0)" fill="#F4CD1D"><path d="M31.086 27.257l-2.73 2.73a1.172 1.172 0 001.657 1.657l2.73-2.73a1.172 1.172 0 00-1.657-1.657z"/><path d="M58.975 8.985a1.172 1.172 0 00-2.176.87c1.66 4.153.865 8.84-2.004 12.202L37.943 5.205A11.946 11.946 0 0150.145 3.2a1.172 1.172 0 00.87-2.176 14.287 14.287 0 00-14.913 2.68 3.99 3.99 0 00-4.499.794 3.958 3.958 0 00-1.167 2.817 3.96 3.96 0 001.167 2.817l.323.323a14.313 14.313 0 00-.447 5.438L14.47 36.232a4.559 4.559 0 00.275 6.18l.623.623-4.272 4.272a6.09 6.09 0 00-1.795 4.334 6.09 6.09 0 001.795 4.335 6.092 6.092 0 006.796 1.279l23.514-10.31a5.558 5.558 0 016.2 1.166c1.948 1.948 1.903 4.425 1.212 6.094-.691 1.668-2.411 3.451-5.166 3.451h-16.52a1.172 1.172 0 000 2.344h16.52c3.27 0 6.08-1.877 7.33-4.898 1.253-3.022.593-6.335-1.72-8.648a7.888 7.888 0 00-8.797-1.656l-23.514 10.31a3.763 3.763 0 01-4.197-.79 3.76 3.76 0 01-1.11-2.677c0-1.011.394-1.962 1.11-2.677l4.271-4.272.562.561a4.567 4.567 0 003.238 1.351 4.575 4.575 0 002.942-1.076l20.342-17.01a14.24 14.24 0 005.434-.444l.323.322a3.958 3.958 0 002.817 1.168 3.958 3.958 0 002.817-1.168 3.991 3.991 0 00.794-4.499 14.285 14.285 0 002.68-14.912zm-36.71 34.746a2.227 2.227 0 01-3.02-.135l-2.841-2.841a2.227 2.227 0 01-.135-3.02L32.112 18.79a14.307 14.307 0 003.476 5.622 14.297 14.297 0 005.624 3.475L22.264 43.73zm14.98-20.976A11.889 11.889 0 0133.89 12.42l13.689 13.69c-3.756.601-7.59-.61-10.334-3.355zm16.599 3.985c-.31.31-.722.48-1.16.48-.438 0-.85-.17-1.16-.48L33.26 8.476a1.63 1.63 0 01-.48-1.16c0-.438.17-.85.48-1.16.31-.31.722-.48 1.16-.48.438 0 .85.17 1.16.48L53.844 24.42c.31.31.48.722.48 1.16 0 .438-.17.85-.48 1.16zM10.78 11.722h3.688a6.335 6.335 0 006.328-6.328c0-.647-.525-1.172-1.172-1.172h-6.832a4.36 4.36 0 00-4.355 4.355v6.748a5.36 5.36 0 00-3.047-.947A5.397 5.397 0 000 19.768a5.396 5.396 0 005.39 5.39 5.396 5.396 0 005.39-5.39v-8.046zm0-3.145c0-1.109.903-2.011 2.012-2.011h5.484a3.991 3.991 0 01-3.808 2.812h-3.687v-.8zM5.39 22.815a3.05 3.05 0 01-3.046-3.047 3.05 3.05 0 013.046-3.047 3.05 3.05 0 013.047 3.047 3.05 3.05 0 01-3.047 3.047z"/><path d="M54.98 6.192c.308 0 .61-.125.828-.343a1.18 1.18 0 00.344-.829c0-.308-.126-.61-.344-.828a1.18 1.18 0 00-.828-.343c-.308 0-.61.125-.829.343a1.18 1.18 0 00-.343.828c0 .309.125.61.343.829.218.218.52.343.829.343z"/></g><defs><clipPath id="clip0"><path fill="#fff" d="M0 0h60v60H0z"/></clipPath></defs></svg>