<svg width="60" height="60" fill="none" xmlns="http://www.w3.org/2000/svg"><g clip-path="url(#clip0)" fill="#F4CD1D"><path d="M30 60c-.69 0-1.25-.56-1.25-1.25v-15a1.25 1.25 0 012.5 0v15c0 .69-.56 1.25-1.25 1.25z"/><path d="M41.25 60c-.237 0-.477-.068-.693-.21l-11.25-7.5a1.249 1.249 0 111.386-2.08l11.25 7.5A1.249 1.249 0 0141.25 60z"/><path d="M18.75 60a1.25 1.25 0 01-.695-2.29l11.25-7.5a1.249 1.249 0 111.385 2.08l-11.25 7.5c-.21.142-.45.21-.69.21zM55 12.5H5c-2.757 0-5-2.242-5-5s2.243-5 5-5h50c2.758 0 5 2.242 5 5s-2.242 5-5 5zM5 5a2.504 2.504 0 00-2.5 2.5C2.5 8.877 3.623 10 5 10h50c1.377 0 2.5-1.123 2.5-2.5C57.5 6.122 56.377 5 55 5H5z"/><path d="M51.25 45H8.75A3.755 3.755 0 015 41.25v-30c0-.69.56-1.25 1.25-1.25h47.5c.69 0 1.25.56 1.25 1.25v30A3.755 3.755 0 0151.25 45zM7.5 12.5v28.75c0 .69.56 1.25 1.25 1.25h42.5c.69 0 1.25-.56 1.25-1.25V12.5h-45z"/><path d="M16.25 37.5a1.25 1.25 0 01-.885-2.133l10-10a1.25 1.25 0 011.578-.157l6.547 4.365 9.282-11.605a1.253 1.253 0 011.758-.195c.538.433.625 1.218.195 1.758l-10 12.5a1.249 1.249 0 01-1.67.26l-6.648-4.43-9.274 9.275c-.243.24-.563.362-.883.362z"/></g><defs><clipPath id="clip0"><path fill="#fff" d="M0 0h60v60H0z"/></clipPath></defs></svg>