<svg width="50" height="50" fill="none" xmlns="http://www.w3.org/2000/svg"><rect width="50" height="50" rx="25" fill="#F4CD1D" fill-opacity=".2"/><path d="M25 10c-8.284 0-15 6.716-15 15 0 8.284 6.716 15 15 15 8.284 0 15-6.716 15-15-.009-8.28-6.72-14.991-15-15zm0 27.857c-7.1 0-12.857-5.756-12.857-12.857 0-7.1 5.756-12.857 12.857-12.857 7.1 0 12.857 5.756 12.857 12.857-.008 7.098-5.76 12.85-12.857 12.857z" fill="#F4CD1D"/><path d="M33.231 18.885a1.071 1.071 0 00-1.489 0l-9.956 9.957-3.529-3.528a1.071 1.071 0 10-1.515 1.515l4.286 4.285a1.071 1.071 0 001.515 0L33.258 20.4a1.072 1.072 0 00-.027-1.515z" fill="#F4CD1D"/></svg>